<?xml version="1.0" encoding="utf-8"?>
<!-- Generator: Adobe Illustrator 16.0.1, SVG Export Plug-In . SVG Version: 6.00 Build 0)  -->
<!DOCTYPE svg PUBLIC "-//W3C//DTD SVG 1.1//EN" "http://www.w3.org/Graphics/SVG/1.1/DTD/svg11.dtd">
<svg version="1.1" id="Layer_1" xmlns="http://www.w3.org/2000/svg" xmlns:xlink="http://www.w3.org/1999/xlink" x="0px" y="0px"
	 width="700px" height="130.329px" viewBox="0 0 700 130.329" enable-background="new 0 0 700 130.329" xml:space="preserve">
<g>
	<g>
		<g>
			<g>
				<path fill="#FFFFFF" d="M17.779,101.257c-7.357,0-13.343-5.985-13.343-13.343V14.842C4.437,7.485,10.422,1.5,17.779,1.5h53.09
					c7.357,0,13.343,5.985,13.343,13.342v73.072c0,7.357-5.985,13.343-13.343,13.343H17.779z"/>
				<path fill="#9B9DA0" d="M70.87,3c6.53,0,11.843,5.312,11.843,11.842v73.072c0,6.53-5.312,11.843-11.843,11.843h-53.09
					c-6.53,0-11.843-5.312-11.843-11.843V14.842C5.937,8.312,11.249,3,17.779,3H70.87 M70.87,0h-53.09
					C9.582,0,2.937,6.645,2.937,14.842v73.072c0,8.196,6.645,14.843,14.843,14.843h53.09c8.198,0,14.843-6.646,14.843-14.843V14.842
					C85.712,6.645,79.067,0,70.87,0L70.87,0z"/>
			</g>
			
				<line fill="#FFFFFF" stroke="#9B9DA0" stroke-linecap="round" stroke-linejoin="round" stroke-miterlimit="10" x1="17.208" y1="24.261" x2="71.44" y2="24.261"/>
			
				<line fill="#FFFFFF" stroke="#9B9DA0" stroke-linecap="round" stroke-linejoin="round" stroke-miterlimit="10" x1="17.208" y1="35.393" x2="71.44" y2="35.393"/>
			
				<line fill="#FFFFFF" stroke="#9B9DA0" stroke-linecap="round" stroke-linejoin="round" stroke-miterlimit="10" x1="17.208" y1="46.525" x2="71.44" y2="46.525"/>
			
				<line fill="#FFFFFF" stroke="#9B9DA0" stroke-linecap="round" stroke-linejoin="round" stroke-miterlimit="10" x1="17.208" y1="57.658" x2="71.44" y2="57.658"/>
			
				<line fill="#FFFFFF" stroke="#9B9DA0" stroke-linecap="round" stroke-linejoin="round" stroke-miterlimit="10" x1="17.208" y1="68.79" x2="71.44" y2="68.79"/>
			
				<line fill="#FFFFFF" stroke="#9B9DA0" stroke-linecap="round" stroke-linejoin="round" stroke-miterlimit="10" x1="17.208" y1="79.92" x2="71.44" y2="79.92"/>
		</g>
		<g>
			<path fill="#9B9DA0" d="M370.001,3v70.354h-99.753V3H370.001 M373.001,0H267.248v76.354h105.753V0L373.001,0z"/>
		</g>
		
			<polyline fill="none" stroke="#9B9DA0" stroke-width="3" stroke-linecap="round" stroke-linejoin="round" stroke-miterlimit="10" points="
			373.001,76.354 395.885,102.757 244.365,102.757 267.248,76.354 		"/>
		<g>
			<path fill="#9B9DA0" d="M694.063,16.201v70.355h-124.49V16.201H694.063 M697.063,13.201h-130.49v76.355h130.49V13.201
				L697.063,13.201z"/>
		</g>
		
			<polyline fill="none" stroke="#9B9DA0" stroke-width="3" stroke-linecap="round" stroke-linejoin="round" stroke-miterlimit="10" points="
			612.742,45.204 631.819,58.8 690.823,16.853 		"/>
	</g>
	<g>
		<polygon fill="none" stroke="#9B9DA0" stroke-linecap="round" stroke-linejoin="round" stroke-miterlimit="10" points="
			90.397,94.405 91.205,16.796 101.719,16.908 100.907,94.519 		"/>
		
			<line fill="none" stroke="#9B9DA0" stroke-linecap="round" stroke-linejoin="round" stroke-miterlimit="10" x1="91.232" y1="14.325" x2="101.743" y2="14.433"/>
		
			<line fill="none" stroke="#9B9DA0" stroke-linecap="round" stroke-linejoin="round" stroke-miterlimit="10" x1="91.255" y1="11.848" x2="101.771" y2="11.96"/>
		
			<line fill="none" stroke="#9B9DA0" stroke-linecap="round" stroke-linejoin="round" stroke-miterlimit="10" x1="91.283" y1="9.25" x2="101.797" y2="9.362"/>
		
			<line fill="none" stroke="#9B9DA0" stroke-linecap="round" stroke-linejoin="round" stroke-miterlimit="10" x1="91.31" y1="6.642" x2="101.824" y2="6.751"/>
		
			<line fill="none" stroke="#9B9DA0" stroke-linecap="round" stroke-linejoin="round" stroke-miterlimit="10" x1="91.283" y1="9.25" x2="101.797" y2="9.362"/>
		
			<line fill="none" stroke="#9B9DA0" stroke-linecap="round" stroke-linejoin="round" stroke-miterlimit="10" x1="91.31" y1="6.642" x2="101.824" y2="6.751"/>
		
			<line fill="none" stroke="#9B9DA0" stroke-linecap="round" stroke-linejoin="round" stroke-miterlimit="10" x1="91.339" y1="4.09" x2="101.851" y2="4.2"/>
		
			<line fill="none" stroke="#9B9DA0" stroke-linecap="round" stroke-linejoin="round" stroke-miterlimit="10" x1="91.364" y1="1.482" x2="101.88" y2="1.593"/>
		
			<line fill="none" stroke="#9B9DA0" stroke-linecap="round" stroke-linejoin="round" stroke-miterlimit="10" x1="90.366" y1="97.345" x2="100.88" y2="97.453"/>
		
			<line fill="none" stroke="#9B9DA0" stroke-linecap="round" stroke-linejoin="round" stroke-miterlimit="10" x1="91.571" y1="100.603" x2="99.3" y2="100.686"/>
		
			<line fill="none" stroke="#9B9DA0" stroke-linecap="round" stroke-linejoin="round" stroke-miterlimit="10" x1="93.082" y1="103.715" x2="97.718" y2="103.762"/>
		
			<line fill="none" stroke="#9B9DA0" stroke-linecap="round" stroke-linejoin="round" stroke-miterlimit="10" x1="94.604" y1="106.356" x2="96.147" y2="106.375"/>
		
			<line fill="none" stroke="#9B9DA0" stroke-linecap="round" stroke-linejoin="round" stroke-miterlimit="10" x1="95.476" y1="22.56" x2="94.807" y2="86.72"/>
	</g>
	
		<line fill="none" stroke="#9B9DA0" stroke-linecap="round" stroke-linejoin="round" stroke-miterlimit="10" x1="275.555" y1="71.555" x2="275.555" y2="31.666"/>
	
		<line fill="none" stroke="#9B9DA0" stroke-linecap="round" stroke-linejoin="round" stroke-miterlimit="10" x1="279.266" y1="71.555" x2="279.266" y2="37.231"/>
	
		<line fill="none" stroke="#9B9DA0" stroke-linecap="round" stroke-linejoin="round" stroke-miterlimit="10" x1="282.977" y1="71.555" x2="282.977" y2="42.797"/>
	
		<line fill="none" stroke="#9B9DA0" stroke-linecap="round" stroke-linejoin="round" stroke-miterlimit="10" x1="286.687" y1="71.555" x2="286.687" y2="48.363"/>
	
		<line fill="none" stroke="#9B9DA0" stroke-linecap="round" stroke-linejoin="round" stroke-miterlimit="10" x1="290.397" y1="71.555" x2="290.397" y2="53.929"/>
	
		<line fill="none" stroke="#9B9DA0" stroke-linecap="round" stroke-linejoin="round" stroke-miterlimit="10" x1="368.709" y1="8.397" x2="338.096" y2="8.397"/>
	
		<line fill="none" stroke="#9B9DA0" stroke-linecap="round" stroke-linejoin="round" stroke-miterlimit="10" x1="368.709" y1="12.107" x2="343.662" y2="12.107"/>
	
		<line fill="none" stroke="#9B9DA0" stroke-linecap="round" stroke-linejoin="round" stroke-miterlimit="10" x1="368.709" y1="15.818" x2="349.228" y2="15.818"/>
	
		<line fill="none" stroke="#9B9DA0" stroke-linecap="round" stroke-linejoin="round" stroke-miterlimit="10" x1="368.709" y1="19.529" x2="354.794" y2="19.529"/>
	
		<line fill="none" stroke="#9B9DA0" stroke-linecap="round" stroke-linejoin="round" stroke-miterlimit="10" x1="259.089" y1="96.834" x2="381.385" y2="96.834"/>
	
		<line fill="none" stroke="#9B9DA0" stroke-linecap="round" stroke-linejoin="round" stroke-miterlimit="10" x1="264.655" y1="93.123" x2="375.818" y2="93.123"/>
	
		<line fill="none" stroke="#9B9DA0" stroke-linecap="round" stroke-linejoin="round" stroke-miterlimit="10" x1="270.221" y1="89.412" x2="370.253" y2="89.412"/>
	
		<line fill="none" stroke="#9B9DA0" stroke-linecap="round" stroke-linejoin="round" stroke-miterlimit="10" x1="276.715" y1="85.702" x2="363.759" y2="85.702"/>
	
		<line fill="none" stroke="#9B9DA0" stroke-linecap="round" stroke-linejoin="round" stroke-miterlimit="10" x1="573.636" y1="27.723" x2="580.68" y2="27.723"/>
	
		<line fill="none" stroke="#9B9DA0" stroke-linecap="round" stroke-linejoin="round" stroke-miterlimit="10" x1="573.636" y1="31.434" x2="586.246" y2="31.434"/>
	
		<line fill="none" stroke="#9B9DA0" stroke-linecap="round" stroke-linejoin="round" stroke-miterlimit="10" x1="573.636" y1="35.144" x2="591.812" y2="35.144"/>
	
		<line fill="none" stroke="#9B9DA0" stroke-linecap="round" stroke-linejoin="round" stroke-miterlimit="10" x1="573.636" y1="38.854" x2="595.522" y2="38.854"/>
	
		<line fill="none" stroke="#9B9DA0" stroke-linecap="round" stroke-linejoin="round" stroke-miterlimit="10" x1="573.636" y1="42.565" x2="599.233" y2="42.565"/>
	
		<line fill="none" stroke="#9B9DA0" stroke-linecap="round" stroke-linejoin="round" stroke-miterlimit="10" x1="573.636" y1="46.276" x2="604.799" y2="46.276"/>
	
		<line fill="none" stroke="#9B9DA0" stroke-linecap="round" stroke-linejoin="round" stroke-miterlimit="10" x1="588.102" y1="21.075" x2="631.817" y2="21.075"/>
	
		<line fill="none" stroke="#9B9DA0" stroke-linecap="round" stroke-linejoin="round" stroke-miterlimit="10" x1="593.667" y1="24.786" x2="631.817" y2="24.786"/>
	
		<line fill="none" stroke="#9B9DA0" stroke-linecap="round" stroke-linejoin="round" stroke-miterlimit="10" x1="599.233" y1="28.497" x2="631.817" y2="28.497"/>
	
		<line fill="none" stroke="#9B9DA0" stroke-linecap="round" stroke-linejoin="round" stroke-miterlimit="10" x1="604.799" y1="32.207" x2="631.817" y2="32.207"/>
	
		<line fill="none" stroke="#9B9DA0" stroke-linecap="round" stroke-linejoin="round" stroke-miterlimit="10" x1="610.365" y1="35.918" x2="631.817" y2="35.918"/>
	
		<line fill="none" stroke="#9B9DA0" stroke-linecap="round" stroke-linejoin="round" stroke-miterlimit="10" x1="615.931" y1="39.628" x2="631.817" y2="39.628"/>
	
		<line fill="none" stroke="#9B9DA0" stroke-linecap="round" stroke-linejoin="round" stroke-miterlimit="10" x1="689.066" y1="81.219" x2="658.763" y2="81.219"/>
	
		<line fill="none" stroke="#9B9DA0" stroke-linecap="round" stroke-linejoin="round" stroke-miterlimit="10" x1="689.066" y1="81.219" x2="658.763" y2="81.219"/>
	
		<line fill="none" stroke="#9B9DA0" stroke-linecap="round" stroke-linejoin="round" stroke-miterlimit="10" x1="689.066" y1="77.509" x2="664.329" y2="77.509"/>
	
		<line fill="none" stroke="#9B9DA0" stroke-linecap="round" stroke-linejoin="round" stroke-miterlimit="10" x1="689.066" y1="73.798" x2="669.895" y2="73.798"/>
	
		<line fill="none" stroke="#9B9DA0" stroke-linecap="round" stroke-linejoin="round" stroke-miterlimit="10" x1="689.066" y1="70.087" x2="675.461" y2="70.087"/>
	
		<line fill="none" stroke="#9B9DA0" stroke-linecap="round" stroke-linejoin="round" stroke-miterlimit="10" x1="689.066" y1="66.377" x2="681.027" y2="66.377"/>
	
		<line fill="none" stroke="#9B9DA0" stroke-linecap="round" stroke-linejoin="round" stroke-miterlimit="10" x1="101.88" y1="116.314" x2="115.997" y2="123.156"/>
	
		<line fill="none" stroke="#9B9DA0" stroke-linecap="round" stroke-linejoin="round" stroke-miterlimit="10" x1="127.979" y1="122.5" x2="250.43" y2="62.742"/>
	
		<line fill="none" stroke="#9B9DA0" stroke-linecap="round" stroke-linejoin="round" stroke-miterlimit="10" x1="387.208" y1="10.944" x2="471.678" y2="73.34"/>
	
		<line fill="none" stroke="#9B9DA0" stroke-linecap="round" stroke-linejoin="round" stroke-miterlimit="10" x1="485.902" y1="75.344" x2="554.189" y2="54.917"/>
	<g>
		
			<circle fill="#4D849C" stroke="#9B9DA0" stroke-linecap="round" stroke-linejoin="round" stroke-miterlimit="10" cx="122.316" cy="125.559" r="3.015"/>
		
			<circle fill="#4D849C" stroke="#9B9DA0" stroke-linecap="round" stroke-linejoin="round" stroke-miterlimit="10" cx="96.975" cy="113.3" r="3.015"/>
		
			<circle fill="#4D849C" stroke="#9B9DA0" stroke-linecap="round" stroke-linejoin="round" stroke-miterlimit="10" cx="256.074" cy="59.959" r="3.015"/>
		
			<circle fill="#4D849C" stroke="#9B9DA0" stroke-linecap="round" stroke-linejoin="round" stroke-miterlimit="10" cx="478.481" cy="76.354" r="3.015"/>
		
			<circle fill="#4D849C" stroke="#9B9DA0" stroke-linecap="round" stroke-linejoin="round" stroke-miterlimit="10" cx="381.385" cy="6.642" r="3.015"/>
		
			<circle fill="#4D849C" stroke="#9B9DA0" stroke-linecap="round" stroke-linejoin="round" stroke-miterlimit="10" cx="561.19" cy="52.439" r="3.015"/>
	</g>
</g>
</svg>
